<?xml version="1.0" encoding="UTF-8" standalone="no"?>
<!-- Created with Inkscape (http://www.inkscape.org/) -->

<svg
   width="44.779072mm"
   height="36.109535mm"
   viewBox="0 0 44.779071 36.109535"
   version="1.1"
   id="svg1"
   xml:space="preserve"
   inkscape:version="1.3.2 (091e20e, 2023-11-25, custom)"
   sodipodi:docname="blender-2.svg"
   xmlns:inkscape="http://www.inkscape.org/namespaces/inkscape"
   xmlns:sodipodi="http://sodipodi.sourceforge.net/DTD/sodipodi-0.dtd"
   xmlns="http://www.w3.org/2000/svg"
   xmlns:svg="http://www.w3.org/2000/svg"><sodipodi:namedview
     id="namedview1"
     pagecolor="#505050"
     bordercolor="#eeeeee"
     borderopacity="1"
     inkscape:showpageshadow="0"
     inkscape:pageopacity="0"
     inkscape:pagecheckerboard="true"
     inkscape:deskcolor="#505050"
     inkscape:document-units="mm"
     inkscape:zoom="2.0485264"
     inkscape:cx="-7.8104923"
     inkscape:cy="-29.533424"
     inkscape:window-width="1920"
     inkscape:window-height="1009"
     inkscape:window-x="-8"
     inkscape:window-y="1072"
     inkscape:window-maximized="1"
     inkscape:current-layer="layer1" /><defs
     id="defs1" /><g
     inkscape:label="Layer 1"
     inkscape:groupmode="layer"
     id="layer1"
     transform="translate(-87.155396,-131.2846)"><path
       style="fill:#ffffff"
       d="m 113.87255,167.28059 c -6.97602,-1.08599 -12.31399,-6.10938 -13.0231,-12.25563 l -0.17622,-1.52735 -4.233328,3.46814 c -4.29293,3.51697 -5.39144,4.21677 -6.61922,4.21677 -1.98804,0 -3.20752,-1.88862 -2.42648,-3.75791 0.46344,-1.10918 0.7448,-1.33732 9.88587,-8.01605 l 6.880498,-5.02708 -4.699688,-0.13229 c -4.47492,-0.12597 -4.73124,-0.16197 -5.3593,-0.7527 -0.36279,-0.34122 -0.73124,-0.90576 -0.81878,-1.25454 -0.24078,-0.95935 0.48158,-2.38989 1.48261,-2.93613 0.80935,-0.44163 1.6153,-0.47553 9.942718,-0.41812 4.98409,0.0344 9.05686,-0.0252 9.05062,-0.13229 -0.006,-0.10712 -1.15288,-1.08773 -2.54807,-2.17914 -1.39518,-1.09141 -2.70963,-2.24644 -2.92099,-2.56673 -0.80672,-1.22249 0.54257,-2.72494 2.44715,-2.72494 1.01841,0 1.46165,0.25209 4.53585,2.57969 13.3647,10.11897 13.81442,10.51948 15.31552,13.63962 1.81113,3.76455 1.7947,7.68055 -0.0483,11.5123 -1.78347,3.70798 -5.61667,6.73475 -9.90825,7.82375 -1.95837,0.49695 -5.08714,0.70091 -6.75912,0.44063 z m 6.80981,-7.75674 c 6.37773,-2.84634 7.1139,-10.74362 1.3465,-14.44455 -2.80392,-1.79927 -6.74436,-2.06857 -9.8532,-0.67341 -3.03247,1.36089 -5.28783,4.56175 -5.28324,7.49809 0.005,3.45696 2.6187,6.77369 6.29674,7.99164 2.12977,0.70525 5.44892,0.54057 7.4932,-0.37177 z m -6.25079,-3.41309 c -1.8739,-0.69728 -3.10004,-2.1199 -3.44896,-4.00163 -0.42012,-2.26569 1.51166,-4.85526 4.08189,-5.47185 4.49835,-1.07914 8.41673,3.26665 6.30578,6.99361 -0.94521,1.66881 -2.52451,2.61842 -4.49676,2.70384 -0.90651,0.0393 -2.00539,-0.0615 -2.44195,-0.22397 z"
       id="path1" /></g></svg>
