<?xml version="1.0" encoding="UTF-8" standalone="no"?>
<!-- Created with Inkscape (http://www.inkscape.org/) -->

<svg
   width="158.27899mm"
   height="158.41623mm"
   viewBox="0 0 158.27899 158.41623"
   version="1.1"
   id="svg1"
   xml:space="preserve"
   inkscape:version="1.3.2 (091e20e, 2023-11-25, custom)"
   sodipodi:docname="davinci.svg"
   xmlns:inkscape="http://www.inkscape.org/namespaces/inkscape"
   xmlns:sodipodi="http://sodipodi.sourceforge.net/DTD/sodipodi-0.dtd"
   xmlns="http://www.w3.org/2000/svg"
   xmlns:svg="http://www.w3.org/2000/svg"><sodipodi:namedview
     id="namedview1"
     pagecolor="#505050"
     bordercolor="#eeeeee"
     borderopacity="1"
     inkscape:showpageshadow="0"
     inkscape:pageopacity="0"
     inkscape:pagecheckerboard="true"
     inkscape:deskcolor="#505050"
     inkscape:document-units="mm"
     inkscape:zoom="0.51213161"
     inkscape:cx="37.099838"
     inkscape:cy="358.30633"
     inkscape:window-width="1920"
     inkscape:window-height="1009"
     inkscape:window-x="-8"
     inkscape:window-y="1072"
     inkscape:window-maximized="1"
     inkscape:current-layer="layer1" /><defs
     id="defs1" /><g
     inkscape:label="Layer 1"
     inkscape:groupmode="layer"
     id="layer1"
     transform="translate(-24.974587,-63.566709)"><path
       style="fill:#ffffff"
       d="m 99.355026,221.83168 c -4.577249,-0.34197 -8.334741,-0.87649 -12.254706,-1.74329 -14.758207,-3.26341 -28.14505,-10.59848 -38.81397,-21.2674 -9.743779,-9.74378 -16.570186,-21.37386 -20.348284,-34.66717 -1.304826,-4.59106 -2.12934,-9.10729 -2.689285,-14.7304 -0.255404,-2.56484 -0.370064,-9.80424 -0.17841,-11.26442 0.07149,-0.54466 0.21736,-1.96509 0.32416,-3.15652 1.818648,-20.28829 12.098438,-39.749837 28.031793,-53.069377 11.621883,-9.71536 25.756523,-15.87955 40.791625,-17.78945 4.253527,-0.54033 10.967531,-0.73375 15.270731,-0.43995 11.16637,0.76241 22.21493,3.9153 31.82941,9.08306 4.60369,2.47448 8.23764,4.87981 12.37849,8.19339 2.57336,2.05925 3.37178,2.77503 6.11296,5.48022 11.98452,11.82719 19.61965,26.562047 22.42092,43.269597 0.59136,3.527 0.78591,5.46264 0.94965,9.44835 0.56397,13.72831 -2.11865,26.57841 -8.06367,38.62599 -10.00651,20.27817 -28.35888,35.4012 -50.19822,41.36518 -7.99669,2.18377 -18.0096,3.22653 -25.563194,2.66219 z M 77.754564,183.97066 c 3.178383,-0.56222 6.116086,-1.72415 8.355477,-3.30478 4.26317,-3.00907 8.177879,-9.31331 11.598555,-18.6783 1.51823,-4.15652 3.427704,-10.85127 3.589654,-12.58556 0.13093,-1.4022 -0.39345,-2.41014 -1.564764,-3.0077 -0.85735,-0.43739 -6.003932,-1.90556 -9.331223,-2.66193 -6.120552,-1.39134 -10.37439,-1.87856 -15.398356,-1.76369 -5.956198,0.13618 -9.640609,1.24273 -13.311718,3.99794 -1.331912,0.99962 -3.634758,3.39398 -4.700981,4.8878 -2.507818,3.51356 -3.819231,7.58811 -3.822295,11.87585 -0.0043,5.96637 1.924541,10.8683 5.8866,14.96043 4.271293,4.41152 10.004194,6.7202 16.161461,6.50835 0.851021,-0.0293 1.992936,-0.13207 2.53759,-0.22841 z m 60.507246,-0.25167 c 6.76195,-1.36914 11.97536,-5.4481 14.96019,-11.70484 1.25018,-2.6206 1.81931,-5.0409 1.92111,-8.1698 0.12762,-3.92211 -0.49069,-6.87937 -2.13518,-10.21225 -1.06908,-2.16668 -2.15314,-3.64806 -4.07631,-5.57031 -1.80447,-1.80363 -3.04176,-2.73766 -4.91475,-3.71016 -3.29071,-1.70863 -6.55665,-2.35359 -11.92075,-2.35411 -4.0256,-3.9e-4 -7.32048,0.36562 -12.31659,1.36818 -3.86238,0.77506 -9.97994,2.43846 -11.17655,3.03898 -1.69385,0.85005 -1.8364,1.81916 -0.84027,5.71264 3.33459,13.03358 8.23674,23.14523 13.29772,27.42917 1.84938,1.56544 3.58035,2.5293 6.1279,3.41222 3.43733,1.1913 7.55014,1.47368 11.07348,0.76028 z m -33.027,-42.19932 c 0.79935,-0.37269 1.5315,-1.05089 4.63151,-4.29017 9.54672,-9.97565 14.42791,-17.71459 15.36964,-24.36802 0.43018,-3.0392 -0.25631,-7.27636 -1.7184,-10.60648 -2.6432,-6.020247 -8.57927,-10.864257 -14.94176,-12.192897 -2.6727,-0.55813 -5.84034,-0.55144 -8.663744,0.0183 -7.207049,1.45428 -13.289213,6.80383 -15.760218,13.861837 -0.925831,2.64448 -1.397672,6.21986 -1.138503,8.62701 0.681282,6.32771 4.952529,13.73034 12.779541,22.14862 3.01611,3.24395 6.268404,6.2582 7.315344,6.77991 0.77864,0.38801 1.32918,0.39368 2.12659,0.0219 z"
       id="path1" /></g></svg>
