<?xml version="1.0" encoding="UTF-8" standalone="no"?>
<!-- Created with Inkscape (http://www.inkscape.org/) -->

<svg
   width="3.2724445mm"
   height="3.2540042mm"
   viewBox="0 0 3.2724445 3.2540043"
   version="1.1"
   id="svg1"
   xml:space="preserve"
   inkscape:version="1.3.2 (091e20e, 2023-11-25, custom)"
   sodipodi:docname="facebook.svg"
   xmlns:inkscape="http://www.inkscape.org/namespaces/inkscape"
   xmlns:sodipodi="http://sodipodi.sourceforge.net/DTD/sodipodi-0.dtd"
   xmlns="http://www.w3.org/2000/svg"
   xmlns:svg="http://www.w3.org/2000/svg"><sodipodi:namedview
     id="namedview1"
     pagecolor="#505050"
     bordercolor="#eeeeee"
     borderopacity="1"
     inkscape:showpageshadow="0"
     inkscape:pageopacity="0"
     inkscape:pagecheckerboard="true"
     inkscape:deskcolor="#505050"
     inkscape:document-units="mm"
     inkscape:zoom="16.388211"
     inkscape:cx="-0.18305841"
     inkscape:cy="5.0951259"
     inkscape:window-width="1920"
     inkscape:window-height="1009"
     inkscape:window-x="-8"
     inkscape:window-y="1072"
     inkscape:window-maximized="1"
     inkscape:current-layer="layer1" /><defs
     id="defs1" /><g
     inkscape:label="Layer 1"
     inkscape:groupmode="layer"
     id="layer1"
     transform="translate(-97.33873,-145.36212)"><path
       style="fill:#ffffff"
       d="m 98.448534,148.54815 c -0.657042,-0.22482 -1.071811,-0.77501 -1.107054,-1.46848 -0.02531,-0.49807 0.123402,-0.88656 0.473336,-1.23649 0.326992,-0.327 0.700117,-0.48174 1.159943,-0.48106 0.546806,8.1e-4 1.016255,0.24029 1.328341,0.67763 0.4672,0.65473 0.39677,1.53008 -0.16882,2.09804 -0.209021,0.2099 -0.524708,0.39139 -0.77405,0.445 l -0.128089,0.0276 v -0.58451 -0.5845 h 0.192429 0.192429 l 0.02033,-0.17329 c 0.01118,-0.0953 0.02722,-0.19704 0.03564,-0.22604 0.01362,-0.0469 -0.0098,-0.0528 -0.212762,-0.0528 h -0.228071 v -0.22078 c 0,-0.28319 0.05772,-0.35185 0.295795,-0.35185 h 0.156286 v -0.20703 -0.20703 l -0.113021,-0.0187 c -0.299736,-0.0495 -0.517328,1.8e-4 -0.680715,0.15555 -0.135709,0.12906 -0.153327,0.18276 -0.170025,0.5183 l -0.01575,0.31645 -0.203436,0.009 -0.203437,0.009 v 0.22466 0.22466 h 0.210971 0.210971 v 0.58771 c 0,0.45049 -0.0088,0.58752 -0.03767,0.58693 -0.02072,-4.3e-4 -0.125829,-0.031 -0.233575,-0.0678 z"
       id="path1" /></g></svg>
