<?xml version="1.0" encoding="UTF-8" standalone="no"?>
<!-- Created with Inkscape (http://www.inkscape.org/) -->

<svg
   width="3.4784222mm"
   height="3.492887mm"
   viewBox="0 0 3.4784222 3.4928871"
   version="1.1"
   id="svg1"
   xml:space="preserve"
   inkscape:version="1.3.2 (091e20e, 2023-11-25, custom)"
   sodipodi:docname="instagram.svg"
   xmlns:inkscape="http://www.inkscape.org/namespaces/inkscape"
   xmlns:sodipodi="http://sodipodi.sourceforge.net/DTD/sodipodi-0.dtd"
   xmlns="http://www.w3.org/2000/svg"
   xmlns:svg="http://www.w3.org/2000/svg"><sodipodi:namedview
     id="namedview1"
     pagecolor="#505050"
     bordercolor="#eeeeee"
     borderopacity="1"
     inkscape:showpageshadow="0"
     inkscape:pageopacity="0"
     inkscape:pagecheckerboard="true"
     inkscape:deskcolor="#505050"
     inkscape:document-units="mm"
     inkscape:zoom="23.176431"
     inkscape:cx="3.8401081"
     inkscape:cy="7.3997589"
     inkscape:window-width="1920"
     inkscape:window-height="1009"
     inkscape:window-x="-8"
     inkscape:window-y="1072"
     inkscape:window-maximized="1"
     inkscape:current-layer="layer1" /><defs
     id="defs1" /><g
     inkscape:label="Layer 1"
     inkscape:groupmode="layer"
     id="layer1"
     transform="translate(-97.23444,-145.18455)"><path
       style="fill:#ffffff"
       d="m 97.691367,148.62792 c -0.151368,-0.0539 -0.32865,-0.21664 -0.400051,-0.3671 -0.07602,-0.16019 -0.07575,-2.47288 3.01e-4,-2.65491 0.06556,-0.15689 0.163235,-0.26072 0.32942,-0.35016 0.128624,-0.0692 0.166887,-0.0712 1.341404,-0.0712 h 1.208999 l 0.16435,0.0846 c 0.0995,0.0512 0.20365,0.14046 0.26394,0.22622 l 0.0996,0.14165 0.01,1.22962 c 0.009,1.07129 0.003,1.24775 -0.044,1.37051 -0.0633,0.16565 -0.27484,0.35945 -0.44363,0.40634 -0.19281,0.0536 -2.373931,0.0402 -2.530183,-0.0155 z m 1.663224,-0.9257 c 0.179531,-0.091 0.351847,-0.27095 0.427561,-0.44656 0.02804,-0.0651 0.05159,-0.21592 0.05232,-0.33528 0.0011,-0.18217 -0.01491,-0.24595 -0.09989,-0.3972 -0.35776,-0.63682 -1.202946,-0.61311 -1.557852,0.0437 -0.08685,0.16073 -0.07963,0.56263 0.01324,0.73603 0.08983,0.16775 0.290718,0.36257 0.440613,0.42732 0.187711,0.0811 0.535277,0.0676 0.724004,-0.028 z m 0.718889,-1.65712 c 0.0502,-0.0767 0.0502,-0.0888 0,-0.1655 -0.03,-0.0458 -0.08601,-0.0828 -0.125326,-0.0828 -0.0829,0 -0.192168,0.0889 -0.192168,0.15626 0,0.1795 0.218645,0.24285 0.317494,0.092 z"
       id="path1" /></g></svg>
