<?xml version="1.0" encoding="UTF-8" standalone="no"?>
<!-- Created with Inkscape (http://www.inkscape.org/) -->

<svg
   width="4.3306303mm"
   height="3.5566978mm"
   viewBox="0 0 4.3306303 3.5566979"
   version="1.1"
   id="svg1"
   xml:space="preserve"
   inkscape:version="1.3.2 (091e20e, 2023-11-25, custom)"
   sodipodi:docname="twitter.svg"
   xmlns:inkscape="http://www.inkscape.org/namespaces/inkscape"
   xmlns:sodipodi="http://sodipodi.sourceforge.net/DTD/sodipodi-0.dtd"
   xmlns="http://www.w3.org/2000/svg"
   xmlns:svg="http://www.w3.org/2000/svg"><sodipodi:namedview
     id="namedview1"
     pagecolor="#505050"
     bordercolor="#eeeeee"
     borderopacity="1"
     inkscape:showpageshadow="0"
     inkscape:pageopacity="0"
     inkscape:pagecheckerboard="true"
     inkscape:deskcolor="#505050"
     inkscape:document-units="mm"
     inkscape:zoom="11.588215"
     inkscape:cx="19.329982"
     inkscape:cy="6.5152396"
     inkscape:window-width="1920"
     inkscape:window-height="1009"
     inkscape:window-x="-8"
     inkscape:window-y="1072"
     inkscape:window-maximized="1"
     inkscape:current-layer="layer1" /><defs
     id="defs1" /><g
     inkscape:label="Layer 1"
     inkscape:groupmode="layer"
     id="layer1"
     transform="translate(-96.698315,-145.15232)"><path
       style="fill:#ffffff"
       d="m 97.408236,148.64158 c -0.137098,-0.0359 -0.352915,-0.1156 -0.479595,-0.17705 l -0.230326,-0.11174 0.283441,-0.0266 c 0.310591,-0.0291 0.58161,-0.11201 0.816429,-0.24962 0.150094,-0.088 0.171458,-0.15383 0.04989,-0.15383 -0.191359,0 -0.508792,-0.22973 -0.620802,-0.44929 -0.03657,-0.0717 -0.0665,-0.13557 -0.0665,-0.14196 0,-0.006 0.05388,-0.005 0.119733,0.002 0.22477,0.0262 0.24832,-0.0217 0.05737,-0.11689 -0.270972,-0.13503 -0.482936,-0.43622 -0.484666,-0.68867 l -7.52e-4,-0.10981 0.141334,0.0499 c 0.213085,0.0752 0.237287,0.0614 0.116599,-0.0666 -0.235201,-0.24939 -0.32098,-0.63349 -0.20771,-0.93008 l 0.05863,-0.15352 0.248854,0.23178 c 0.13687,0.12748 0.347465,0.28998 0.46799,0.36112 0.254101,0.14997 0.67637,0.29221 0.953518,0.32118 l 0.193147,0.0202 -0.01317,-0.13812 c -0.01819,-0.19076 0.07304,-0.47873 0.200333,-0.63237 0.311917,-0.37645 0.867313,-0.43902 1.257197,-0.14164 0.11146,0.085 0.12728,0.0879 0.26078,0.048 0.0782,-0.0233 0.2013,-0.0726 0.27361,-0.10939 l 0.13148,-0.0669 -0.0246,0.0793 c -0.0337,0.10864 -0.13743,0.25076 -0.24422,0.33476 -0.1071,0.0842 -0.0546,0.0901 0.17871,0.0199 0.0916,-0.0276 0.17413,-0.0426 0.18337,-0.0333 0.009,0.009 -0.0787,0.11315 -0.19538,0.2309 -0.20044,0.20224 -0.21218,0.22313 -0.21218,0.37734 0,0.0898 -0.0244,0.28109 -0.0541,0.42513 -0.21338,1.03303 -1.012509,1.85057 -1.981909,2.02757 -0.321032,0.0586 -0.889724,0.0432 -1.176475,-0.032 z"
       id="path1" /></g></svg>
