<?xml version="1.0" encoding="UTF-8" standalone="no"?>
<!-- Created with Inkscape (http://www.inkscape.org/) -->

<svg
   width="26.682674mm"
   height="23.171282mm"
   viewBox="0 0 26.682674 23.171282"
   version="1.1"
   id="svg1"
   xml:space="preserve"
   inkscape:version="1.3.2 (091e20e, 2023-11-25, custom)"
   sodipodi:docname="unreal-2.svg"
   xmlns:inkscape="http://www.inkscape.org/namespaces/inkscape"
   xmlns:sodipodi="http://sodipodi.sourceforge.net/DTD/sodipodi-0.dtd"
   xmlns="http://www.w3.org/2000/svg"
   xmlns:svg="http://www.w3.org/2000/svg"><sodipodi:namedview
     id="namedview1"
     pagecolor="#505050"
     bordercolor="#eeeeee"
     borderopacity="1"
     inkscape:showpageshadow="0"
     inkscape:pageopacity="0"
     inkscape:pagecheckerboard="true"
     inkscape:deskcolor="#505050"
     inkscape:document-units="mm"
     inkscape:zoom="2.0485264"
     inkscape:cx="-41.49324"
     inkscape:cy="-49.547811"
     inkscape:window-width="1920"
     inkscape:window-height="1009"
     inkscape:window-x="-8"
     inkscape:window-y="1072"
     inkscape:window-maximized="1"
     inkscape:current-layer="layer1" /><defs
     id="defs1" /><g
     inkscape:label="Layer 1"
     inkscape:groupmode="layer"
     id="layer1"
     transform="translate(-96.103289,-136.56514)"><path
       style="fill:#ffffff"
       d="m 107.11916,159.58556 c -3.13468,-0.45753 -6.10866,-2.00759 -8.156611,-4.25126 -1.80021,-1.97227 -2.694094,-4.07709 -2.842504,-6.69321 -0.37631,-6.63373 5.632065,-12.071 13.344375,-12.07595 4.49447,-0.003 8.72503,2.02058 11.21241,5.36287 1.44457,1.94106 2.32302,4.96225 2.06402,7.09863 -0.5488,4.52689 -3.68229,8.21068 -8.4122,9.88955 -2.1447,0.76126 -4.85557,1.01295 -7.20949,0.66937 z m 5.49392,-0.7744 c 5.51306,-1.23905 9.48706,-5.69886 9.48706,-10.6468 0,-1.72597 -0.41296,-3.20995 -1.37083,-4.92617 -1.56006,-2.79513 -4.71938,-5.03898 -8.20701,-5.8289 -1.80874,-0.40965 -4.8079,-0.36777 -6.5036,0.0908 -4.72307,1.27733 -8.063171,4.36099 -9.055341,8.36008 -0.28427,1.14577 -0.23371,3.80806 0.0936,4.92617 0.91396,3.12267 3.794931,6.13105 7.116381,7.4311 2.44358,0.95645 5.78116,1.19123 8.4398,0.5937 z m -4.72696,-3.96968 c -1.46397,-0.33727 -2.82224,-0.90115 -3.65634,-1.51791 -0.67446,-0.49871 -0.71977,-0.70976 -0.15236,-0.70976 0.79211,0 0.84991,-0.21712 0.84991,-3.19235 0,-2.50141 -0.037,-2.85108 -0.33559,-3.17517 -0.30632,-0.33242 -0.38424,-0.34648 -0.89325,-0.1612 -0.69174,0.25179 -2.27905,1.69884 -3.19596,2.91354 -0.37934,0.50255 -0.728121,0.91373 -0.775061,0.91373 -0.1513,0 0.16144,-1.47776 0.452761,-2.13932 0.84966,-1.92955 3.42188,-4.38634 5.88381,-5.61979 2.06855,-1.03635 2.26102,-1.0403 1.48775,-0.0305 -0.34942,0.45628 -0.6353,1.02102 -0.6353,1.25499 0,0.50299 0.4559,1.13175 0.8206,1.13175 0.21394,0 0.26584,0.61267 0.30621,3.61458 l 0.0486,3.61457 0.68764,0.19788 c 0.55986,0.1611 0.79508,0.1579 1.26583,-0.0172 1.21966,-0.45368 1.23914,-0.51931 1.17682,-3.96428 -0.0549,-3.03312 -0.066,-3.11214 -0.49453,-3.5126 l -0.4384,-0.40967 h 0.40508 c 0.22279,0 0.56673,0.076 0.76432,0.16895 0.30147,0.14178 0.46677,0.0766 1.02789,-0.40513 0.91354,-0.78432 4.01406,-2.14365 4.01406,-1.75984 0,0.0384 -0.44756,0.61798 -0.99458,1.28797 l -0.99458,1.21817 v 3.38038 c 0,2.7978 0.0464,3.41418 0.2689,3.57649 0.39097,0.28514 0.99727,0.095 2.05375,-0.64425 0.51279,-0.35879 0.93234,-0.60765 0.93234,-0.55304 0,0.41614 -1.01201,1.64697 -2.24009,2.72447 -2.02332,1.77523 -2.02671,1.77633 -3.09511,1.00049 l -0.87458,-0.6351 -1.0143,0.88203 c -0.55786,0.48511 -1.0933,0.87808 -1.18988,0.87327 -0.0966,-0.005 -0.75643,-0.14257 -1.46636,-0.30612 z"
       id="path1" /></g></svg>
